<?xml version="1.0" encoding="UTF-8"?>
<svg id="Laag_1" data-name="Laag 1" xmlns="http://www.w3.org/2000/svg" viewBox="0 0 841.89 226.77">
  <defs>
    <style>
      .cls-1 {
        fill: #282827;
      }
    </style>
  </defs>
  <path class="cls-1" d="M160.79,92.84l-35.08,20.03,35.08,20.04,35.06-20.04-35.06-20.03Zm70.17-50.12C191.69,3.44,128.01,3.44,88.74,42.72c-39.28,39.27-39.28,102.95,0,142.22,39.27,39.28,102.95,39.28,142.22,0,39.28-39.27,39.28-102.95,0-142.22Zm-19.56,79.03l15.49,8.83-66.1,37.76-66.07-37.76,15.46-8.83,15.53-8.88-15.48-8.86-15.51-8.86,66.07-37.74,66.1,37.74-15.53,8.86-15.51,8.86,15.55,8.88Zm-85.69-8.88l35.08,20.04,35.06-20.04-35.06-20.03-35.08,20.03Z"/>
  <g>
    <path class="cls-1" d="M338.18,74.86v20.93c-1.52-1.52-3.38-2.69-5.58-3.5-2.2-.81-4.6-1.22-7.2-1.22-4.19,0-8,1.03-11.44,3.09-3.45,2.07-6.18,4.86-8.19,8.39-2.01,3.53-3.01,7.44-3.01,11.73s.99,8.19,2.97,11.72c1.98,3.53,4.7,6.33,8.14,8.39,3.45,2.06,7.32,3.09,11.61,3.09,2.76,0,5.32-.44,7.65-1.34,2.34-.9,4.29-2.19,5.87-3.87v4.24h11.4v-61.65h-12.22Zm-3.14,48.25c-2.09,2.25-4.79,3.38-8.1,3.38s-6.13-1.14-8.3-3.42c-2.17-2.28-3.26-5.21-3.26-8.79s1.09-6.45,3.26-8.76c2.17-2.3,4.94-3.46,8.3-3.46s6.01,1.14,8.1,3.42c2.1,2.28,3.14,5.21,3.14,8.8s-1.04,6.58-3.14,8.83Z"/>
    <path class="cls-1" d="M395.47,98.8c-1.61-2.44-3.86-4.34-6.77-5.7-2.9-1.35-6.2-2.03-9.89-2.03-4.72,0-8.86,1.09-12.42,3.26-3.55,2.17-5.98,5.1-7.28,8.79l9.77,4.64c.76-2.01,1.96-3.59,3.62-4.76s3.57-1.75,5.74-1.75,4.02,.57,5.38,1.71c1.35,1.14,2.03,2.55,2.03,4.23v1.22l-12.29,1.96c-5.27,.87-9.22,2.51-11.85,4.92-2.64,2.42-3.95,5.53-3.95,9.33,0,4.02,1.38,7.16,4.15,9.44,2.77,2.28,6.57,3.42,11.4,3.42,2.82,0,5.32-.42,7.49-1.26,2.18-.84,4.13-2.13,5.87-3.87v4.16h11.4v-29.32c0-3.15-.81-5.94-2.4-8.39Zm-9.82,19.95c0,2.77-.93,5.09-2.81,6.97s-4.3,2.81-7.29,2.81c-1.57,0-2.86-.38-3.86-1.14-1.01-.76-1.51-1.82-1.51-3.18s.45-2.52,1.34-3.34c.9-.81,2.24-1.38,4.03-1.71l10.1-1.79v1.38Z"/>
    <path class="cls-1" d="M451.45,102.55c-2.01-3.53-4.74-6.32-8.19-8.39-3.45-2.06-7.26-3.09-11.44-3.09-2.88,0-5.48,.49-7.82,1.46-2.33,.98-4.26,2.37-5.78,4.16v-4.64h-11.4v60.74h12.22v-19.7c1.57,1.41,3.46,2.49,5.66,3.25,2.2,.76,4.54,1.14,7.04,1.14,4.29,0,8.16-1.03,11.61-3.09,3.44-2.06,6.16-4.86,8.14-8.39s2.97-7.43,2.97-11.72-1.01-8.2-3.01-11.73Zm-12.87,20.52c-2.17,2.28-4.94,3.42-8.3,3.42s-6.02-1.13-8.11-3.38c-2.09-2.25-3.13-5.2-3.13-8.83s1.04-6.52,3.13-8.8c2.09-2.28,4.79-3.42,8.11-3.42s6.13,1.16,8.3,3.46c2.17,2.31,3.26,5.23,3.26,8.76s-1.09,6.51-3.26,8.79Z"/>
    <path class="cls-1" d="M506.25,102.55c-2.01-3.53-4.74-6.32-8.19-8.39-3.45-2.06-7.26-3.09-11.44-3.09-2.87,0-5.48,.49-7.81,1.46-2.34,.98-4.27,2.37-5.79,4.16v-4.64h-11.4v60.74h12.22v-19.7c1.57,1.41,3.46,2.49,5.66,3.25,2.2,.76,4.54,1.14,7.04,1.14,4.29,0,8.16-1.03,11.61-3.09,3.44-2.06,6.16-4.86,8.14-8.39,1.98-3.53,2.97-7.43,2.97-11.72s-1.01-8.2-3.01-11.73Zm-12.87,20.52c-2.17,2.28-4.94,3.42-8.3,3.42s-6.02-1.13-8.11-3.38c-2.09-2.25-3.13-5.2-3.13-8.83s1.04-6.52,3.13-8.8c2.09-2.28,4.79-3.42,8.11-3.42s6.13,1.16,8.3,3.46c2.17,2.31,3.26,5.23,3.26,8.76s-1.09,6.51-3.26,8.79Z"/>
    <path class="cls-1" d="M533.4,124.98c-1.27-1.27-2.86-1.91-4.76-1.91s-3.5,.64-4.8,1.91c-1.31,1.28-1.96,2.87-1.96,4.77s.65,3.5,1.96,4.8c1.3,1.3,2.9,1.96,4.8,1.96s3.56-.64,4.8-1.92c1.25-1.27,1.88-2.89,1.88-4.84s-.64-3.49-1.92-4.77Z"/>
    <path class="cls-1" d="M581.49,115.05c-2.07-2.31-5-3.98-8.8-5.01l-7.08-1.46c-1.74-.44-3-.99-3.79-1.67-.79-.68-1.18-1.48-1.18-2.41,0-1.13,.46-2.03,1.39-2.68,.92-.65,2.22-.98,3.9-.98,2.07,0,3.94,.53,5.62,1.59s2.88,2.46,3.59,4.19l8.87-4.56c-1.46-3.47-3.77-6.17-6.92-8.1-3.15-1.93-6.79-2.89-10.91-2.89-3.42,0-6.45,.58-9.08,1.75-2.64,1.17-4.67,2.81-6.11,4.93-1.44,2.11-2.16,4.56-2.16,7.33,0,3.31,1.05,6.17,3.14,8.59,2.09,2.41,4.98,4.05,8.67,4.92l7.57,1.47c1.52,.27,2.66,.76,3.42,1.46,.76,.71,1.14,1.55,1.14,2.53,0,1.25-.48,2.22-1.46,2.93-.98,.71-2.36,1.06-4.16,1.06-2.33,0-4.45-.64-6.35-1.92-1.9-1.27-3.44-3.05-4.64-5.33l-8.79,4.56c1.35,3.75,3.78,6.69,7.29,8.84,3.5,2.14,7.58,3.21,12.25,3.21,3.53,0,6.62-.58,9.28-1.75,2.66-1.17,4.73-2.81,6.19-4.93,1.47-2.11,2.2-4.55,2.2-7.32,0-3.26-1.03-6.04-3.09-8.35Z"/>
    <path class="cls-1" d="M636.21,102.55c-2.01-3.53-4.74-6.32-8.19-8.39-3.45-2.06-7.26-3.09-11.44-3.09-2.87,0-5.48,.49-7.81,1.46-2.34,.98-4.27,2.37-5.79,4.16v-4.64h-11.4v60.74h12.22v-19.7c1.57,1.41,3.46,2.49,5.66,3.25,2.2,.76,4.54,1.14,7.04,1.14,4.29,0,8.16-1.03,11.61-3.09,3.44-2.06,6.16-4.86,8.14-8.39s2.97-7.43,2.97-11.72-1.01-8.2-3.01-11.73Zm-12.87,20.52c-2.17,2.28-4.94,3.42-8.3,3.42s-6.02-1.13-8.11-3.38c-2.09-2.25-3.13-5.2-3.13-8.83s1.04-6.52,3.13-8.8c2.09-2.28,4.79-3.42,8.11-3.42s6.13,1.16,8.3,3.46c2.17,2.31,3.26,5.23,3.26,8.76s-1.09,6.51-3.26,8.79Z"/>
    <path class="cls-1" d="M682.5,98.8c-1.6-2.44-3.86-4.34-6.76-5.7-2.9-1.35-6.2-2.03-9.89-2.03-4.73,0-8.87,1.09-12.42,3.26-3.56,2.17-5.99,5.1-7.29,8.79l9.77,4.64c.76-2.01,1.97-3.59,3.63-4.76,1.65-1.17,3.57-1.75,5.74-1.75s4.01,.57,5.37,1.71c1.36,1.14,2.04,2.55,2.04,4.23v1.22l-12.3,1.96c-5.27,.87-9.21,2.51-11.85,4.92-2.63,2.42-3.95,5.53-3.95,9.33,0,4.02,1.39,7.16,4.16,9.44,2.76,2.28,6.56,3.42,11.4,3.42,2.82,0,5.32-.42,7.49-1.26,2.17-.84,4.12-2.13,5.86-3.87v4.16h11.4v-29.32c0-3.15-.8-5.94-2.4-8.39Zm-9.81,19.95c0,2.77-.94,5.09-2.81,6.97-1.87,1.87-4.3,2.81-7.29,2.81-1.58,0-2.87-.38-3.87-1.14s-1.5-1.82-1.5-3.18,.44-2.52,1.34-3.34c.89-.81,2.24-1.38,4.03-1.71l10.1-1.79v1.38Z"/>
    <path class="cls-1" d="M722.07,124.54c-1.82,1.3-3.95,1.95-6.39,1.95-3.2,0-5.84-1.14-7.9-3.42-2.06-2.28-3.09-5.21-3.09-8.79s1.03-6.52,3.09-8.8c2.06-2.28,4.7-3.42,7.9-3.42,2.39,0,4.51,.65,6.35,1.96,1.85,1.3,3.15,3.06,3.91,5.29l10.59-4.56c-1.36-4.13-3.93-7.44-7.7-9.94-3.77-2.49-8.16-3.74-13.15-3.74-4.4,0-8.4,1-12.01,3.01-3.61,2.01-6.45,4.78-8.51,8.31-2.06,3.53-3.09,7.46-3.09,11.8s1.03,8.3,3.09,11.85c2.06,3.56,4.9,6.35,8.51,8.39,3.61,2.04,7.61,3.05,12.01,3.05,4.99,0,9.39-1.26,13.19-3.78,3.8-2.53,6.35-5.8,7.66-9.81l-10.59-4.65c-.76,2.23-2.05,3.99-3.87,5.3Z"/>
    <path class="cls-1" d="M786.2,112.97c0-4.12-.87-7.85-2.61-11.19-1.74-3.34-4.26-5.96-7.57-7.86-3.31-1.9-7.25-2.85-11.81-2.85-4.18,0-7.98,1-11.4,3.01s-6.11,4.78-8.06,8.31c-1.96,3.53-2.93,7.46-2.93,11.8s.96,8.22,2.89,11.77c1.92,3.56,4.65,6.37,8.18,8.43,3.53,2.06,7.57,3.09,12.13,3.09s8.49-.99,11.93-2.97c3.45-1.98,5.85-4.6,7.21-7.86l-9.77-4.64c-.87,1.52-2.09,2.72-3.66,3.59-1.58,.86-3.43,1.3-5.54,1.3-2.99,0-5.42-.83-7.29-2.49-1.87-1.65-3-3.89-3.38-6.71h31.11c.37-1.14,.57-2.72,.57-4.73Zm-31.43-4.23c.54-2.55,1.64-4.51,3.29-5.86,1.66-1.36,3.71-2.04,6.15-2.04s4.56,.72,6.19,2.16,2.58,3.35,2.85,5.74h-18.48Z"/>
  </g>
</svg>