<?xml version="1.0" encoding="UTF-8"?>
<svg id="Laag_1" data-name="Laag 1" xmlns="http://www.w3.org/2000/svg" xmlns:xlink="http://www.w3.org/1999/xlink" viewBox="0 0 841.89 226.77">
  <defs>
    <style>
      .cls-1 {
        fill: #fff;
      }

      .cls-2 {
        fill: url(#Naamloos_verloop_27);
      }
    </style>
    <linearGradient id="Naamloos_verloop_27" data-name="Naamloos verloop 27" x1="394.67" y1="-134.39" x2="595.81" y2="-134.39" gradientTransform="translate(-285.37 -141.33) rotate(45)" gradientUnits="userSpaceOnUse">
      <stop offset="0" stop-color="#4ffed1"/>
      <stop offset="1" stop-color="#00aae2"/>
    </linearGradient>
  </defs>
  <circle class="cls-2" cx="159.85" cy="113.83" r="100.57"/>
  <g>
    <path class="cls-1" d="M313.87,134.39c-3.45-2.06-6.16-4.86-8.14-8.39-1.98-3.53-2.97-7.44-2.97-11.73s1.01-8.2,3.01-11.73c2.01-3.53,4.74-6.32,8.19-8.39,3.45-2.06,7.26-3.1,11.44-3.1,2.61,0,5.01,.41,7.21,1.22,2.2,.81,4.06,1.98,5.58,3.5v-20.93h12.21v61.64h-11.4v-4.23c-1.58,1.68-3.53,2.97-5.86,3.87-2.33,.9-4.89,1.34-7.65,1.34-4.29,0-8.16-1.03-11.6-3.09Zm4.76-11.32c2.17,2.28,4.94,3.42,8.31,3.42s6.01-1.13,8.1-3.38c2.09-2.25,3.14-5.2,3.14-8.83s-1.05-6.51-3.14-8.79c-2.09-2.28-4.79-3.42-8.1-3.42s-6.14,1.15-8.31,3.46c-2.17,2.31-3.26,5.23-3.26,8.75s1.08,6.51,3.26,8.79Z"/>
    <path class="cls-1" d="M361.71,134.06c-2.77-2.28-4.15-5.43-4.15-9.45,0-3.8,1.32-6.91,3.95-9.32,2.63-2.41,6.58-4.06,11.85-4.93l12.3-1.95v-1.22c0-1.68-.68-3.1-2.04-4.23-1.36-1.14-3.15-1.71-5.37-1.71s-4.09,.58-5.74,1.75c-1.66,1.17-2.86,2.76-3.62,4.76l-9.77-4.64c1.3-3.69,3.73-6.62,7.29-8.8,3.55-2.17,7.7-3.26,12.42-3.26,3.69,0,6.99,.68,9.89,2.04,2.91,1.36,5.16,3.26,6.76,5.7,1.6,2.44,2.4,5.24,2.4,8.39v29.31h-11.4v-4.15c-1.74,1.74-3.69,3.03-5.86,3.87-2.17,.84-4.67,1.26-7.49,1.26-4.83,0-8.63-1.14-11.4-3.42Zm9.98-6.68c1,.76,2.29,1.14,3.87,1.14,2.99,0,5.42-.94,7.29-2.81,1.87-1.87,2.81-4.19,2.81-6.96v-1.38l-10.1,1.79c-1.79,.33-3.13,.9-4.03,1.71-.9,.81-1.34,1.93-1.34,3.34s.5,2.42,1.51,3.18Z"/>
    <path class="cls-1" d="M406.82,92.05h11.4v4.64c1.52-1.79,3.45-3.18,5.78-4.15,2.33-.98,4.94-1.47,7.82-1.47,4.18,0,7.99,1.03,11.44,3.1,3.45,2.06,6.17,4.86,8.18,8.39,2.01,3.53,3.01,7.44,3.01,11.73s-.99,8.2-2.97,11.73c-1.98,3.53-4.7,6.32-8.14,8.39-3.45,2.06-7.32,3.09-11.61,3.09-2.5,0-4.84-.38-7.04-1.14-2.2-.76-4.09-1.84-5.66-3.26v19.71h-12.21v-60.75Zm15.35,31.06c2.09,2.25,4.79,3.38,8.1,3.38s6.13-1.14,8.3-3.42,3.26-5.21,3.26-8.79-1.08-6.45-3.26-8.75c-2.17-2.31-4.94-3.46-8.3-3.46s-6.01,1.14-8.1,3.42c-2.09,2.28-3.13,5.21-3.13,8.79s1.04,6.58,3.13,8.83Z"/>
    <path class="cls-1" d="M461.62,92.05h11.4v4.64c1.52-1.79,3.45-3.18,5.78-4.15,2.33-.98,4.94-1.47,7.82-1.47,4.18,0,7.99,1.03,11.44,3.1,3.45,2.06,6.17,4.86,8.18,8.39,2.01,3.53,3.01,7.44,3.01,11.73s-.99,8.2-2.97,11.73c-1.98,3.53-4.7,6.32-8.14,8.39-3.45,2.06-7.32,3.09-11.61,3.09-2.5,0-4.84-.38-7.04-1.14-2.2-.76-4.09-1.84-5.66-3.26v19.71h-12.21v-60.75Zm15.35,31.06c2.09,2.25,4.79,3.38,8.1,3.38s6.13-1.14,8.3-3.42,3.26-5.21,3.26-8.79-1.08-6.45-3.26-8.75c-2.17-2.31-4.94-3.46-8.3-3.46s-6.01,1.14-8.1,3.42c-2.09,2.28-3.13,5.21-3.13,8.79s1.04,6.58,3.13,8.83Z"/>
    <path class="cls-1" d="M523.84,134.55c-1.3-1.3-1.96-2.9-1.96-4.8s.65-3.49,1.96-4.76c1.3-1.27,2.9-1.91,4.8-1.91s3.49,.64,4.76,1.91c1.27,1.28,1.91,2.86,1.91,4.76s-.63,3.57-1.87,4.84c-1.25,1.28-2.85,1.91-4.8,1.91s-3.5-.65-4.8-1.95Z"/>
    <path class="cls-1" d="M554.66,134.19c-3.5-2.14-5.93-5.09-7.29-8.83l8.8-4.56c1.19,2.28,2.74,4.06,4.64,5.33,1.9,1.28,4.02,1.91,6.35,1.91,1.79,0,3.18-.35,4.15-1.06,.98-.7,1.47-1.68,1.47-2.93,0-.98-.38-1.82-1.14-2.52-.76-.71-1.9-1.19-3.42-1.47l-7.57-1.47c-3.69-.87-6.58-2.51-8.67-4.93-2.09-2.41-3.14-5.28-3.14-8.59,0-2.77,.72-5.21,2.16-7.33s3.47-3.76,6.11-4.93c2.63-1.17,5.66-1.75,9.08-1.75,4.13,0,7.76,.96,10.91,2.89,3.15,1.93,5.45,4.63,6.92,8.1l-8.88,4.56c-.71-1.74-1.9-3.13-3.58-4.19-1.68-1.06-3.56-1.59-5.62-1.59-1.68,0-2.98,.33-3.91,.98-.92,.65-1.39,1.55-1.39,2.69,0,.92,.39,1.72,1.18,2.4s2.05,1.23,3.79,1.67l7.08,1.47c3.8,1.03,6.73,2.7,8.79,5.01,2.06,2.31,3.1,5.09,3.1,8.35,0,2.77-.73,5.21-2.2,7.33s-3.53,3.76-6.19,4.93c-2.66,1.17-5.75,1.75-9.28,1.75-4.67,0-8.75-1.07-12.25-3.22Z"/>
    <path class="cls-1" d="M591.58,92.05h11.4v4.64c1.52-1.79,3.45-3.18,5.78-4.15,2.33-.98,4.94-1.47,7.82-1.47,4.18,0,7.99,1.03,11.44,3.1,3.45,2.06,6.17,4.86,8.18,8.39,2.01,3.53,3.01,7.44,3.01,11.73s-.99,8.2-2.97,11.73c-1.98,3.53-4.7,6.32-8.14,8.39-3.45,2.06-7.32,3.09-11.61,3.09-2.5,0-4.84-.38-7.04-1.14-2.2-.76-4.09-1.84-5.66-3.26v19.71h-12.21v-60.75Zm15.35,31.06c2.09,2.25,4.79,3.38,8.1,3.38s6.13-1.14,8.3-3.42,3.26-5.21,3.26-8.79-1.08-6.45-3.26-8.75c-2.17-2.31-4.94-3.46-8.3-3.46s-6.01,1.14-8.1,3.42c-2.09,2.28-3.13,5.21-3.13,8.79s1.04,6.58,3.13,8.83Z"/>
    <path class="cls-1" d="M648.75,134.06c-2.77-2.28-4.15-5.43-4.15-9.45,0-3.8,1.32-6.91,3.95-9.32,2.63-2.41,6.58-4.06,11.85-4.93l12.3-1.95v-1.22c0-1.68-.68-3.1-2.04-4.23-1.36-1.14-3.15-1.71-5.37-1.71s-4.09,.58-5.74,1.75c-1.66,1.17-2.86,2.76-3.62,4.76l-9.77-4.64c1.3-3.69,3.73-6.62,7.29-8.8,3.55-2.17,7.7-3.26,12.42-3.26,3.69,0,6.99,.68,9.89,2.04,2.91,1.36,5.16,3.26,6.76,5.7,1.6,2.44,2.4,5.24,2.4,8.39v29.31h-11.4v-4.15c-1.74,1.74-3.69,3.03-5.86,3.87-2.17,.84-4.67,1.26-7.49,1.26-4.83,0-8.63-1.14-11.4-3.42Zm9.98-6.68c1,.76,2.29,1.14,3.87,1.14,2.99,0,5.42-.94,7.29-2.81,1.87-1.87,2.81-4.19,2.81-6.96v-1.38l-10.1,1.79c-1.79,.33-3.13,.9-4.03,1.71-.9,.81-1.34,1.93-1.34,3.34s.5,2.42,1.51,3.18Z"/>
    <path class="cls-1" d="M703.67,134.43c-3.61-2.04-6.45-4.83-8.51-8.39-2.06-3.55-3.09-7.5-3.09-11.85s1.03-8.28,3.09-11.81c2.06-3.53,4.9-6.3,8.51-8.31,3.61-2.01,7.61-3.01,12.01-3.01,4.99,0,9.38,1.25,13.15,3.75,3.77,2.5,6.34,5.81,7.69,9.93l-10.59,4.56c-.76-2.22-2.06-3.99-3.91-5.29-1.85-1.3-3.96-1.95-6.35-1.95-3.2,0-5.84,1.14-7.9,3.42-2.06,2.28-3.09,5.21-3.09,8.79s1.03,6.51,3.09,8.79,4.7,3.42,7.9,3.42c2.44,0,4.57-.65,6.39-1.95,1.82-1.3,3.11-3.07,3.87-5.29l10.59,4.64c-1.3,4.02-3.86,7.29-7.65,9.81-3.8,2.52-8.2,3.79-13.19,3.79-4.4,0-8.4-1.02-12.01-3.05Z"/>
    <path class="cls-1" d="M752.89,134.39c-3.53-2.06-6.26-4.87-8.18-8.43-1.93-3.55-2.89-7.48-2.89-11.77s.98-8.28,2.93-11.81c1.95-3.53,4.64-6.3,8.06-8.31,3.42-2.01,7.22-3.01,11.4-3.01,4.56,0,8.5,.95,11.81,2.85,3.31,1.9,5.84,4.52,7.57,7.86,1.74,3.34,2.61,7.07,2.61,11.2,0,2.01-.19,3.58-.57,4.72h-31.11c.38,2.82,1.51,5.06,3.38,6.72,1.87,1.66,4.3,2.48,7.29,2.48,2.12,0,3.96-.43,5.54-1.3,1.57-.87,2.79-2.06,3.66-3.58l9.77,4.64c-1.36,3.26-3.76,5.88-7.21,7.86-3.45,1.98-7.42,2.97-11.93,2.97s-8.6-1.03-12.13-3.09Zm20.36-25.65c-.27-2.39-1.22-4.3-2.85-5.74-1.63-1.44-3.69-2.16-6.19-2.16s-4.49,.68-6.15,2.04c-1.66,1.36-2.75,3.31-3.3,5.86h18.48Z"/>
  </g>
  <polygon class="cls-1" points="226.89 130.58 160.79 168.34 94.72 130.58 110.18 121.75 125.71 112.87 160.79 132.91 195.85 112.87 211.4 121.75 226.89 130.58"/>
  <polygon class="cls-1" points="226.89 95.15 211.36 104.01 195.85 112.87 160.79 92.84 125.71 112.87 110.23 104.01 94.72 95.15 160.79 57.41 226.89 95.15"/>
</svg>